<svg xmlns="http://www.w3.org/2000/svg" xmlns:xlink="http://www.w3.org/1999/xlink" xml:space="preserve" viewBox="0 0 32 32"><defs><linearGradient id="a"><stop offset="0" stop-color="#4F5B81" style="stop-color:#324c9e;stop-opacity:1"/><stop offset="1" stop-color="#3A4861" style="stop-color:#1c3971;stop-opacity:1"/></linearGradient><linearGradient xlink:href="#a" id="b" x1="6.943" x2="7.072" y1="10.646" y2="31.057" gradientUnits="userSpaceOnUse"/></defs><path fill="url(#b)" d="M0 0h32v32H0z"/><path d="M7.743 8.92a1.89 1.89 0 0 0-1.133 3.4l8.564 6.423a1.263 1.263 0 0 0 1.51 0l8.565-6.423a1.89 1.89 0 0 0-1.134-3.4zm-1.89 4.408v8.186c0 1.39 1.13 2.519 2.52 2.519h15.113c1.389 0 2.518-1.13 2.518-2.52v-8.185l-8.563 6.423a2.515 2.515 0 0 1-3.023 0z" style="fill:#fff;fill-opacity:.899281;stroke-width:.0393565"/></svg>
